HIERARCHY
ROOT Hips
{
	OFFSET 0.000000 0.000000 0.000000
	CHANNELS 6 Xposition Yposition Zposition Zrotation Yrotation Xrotation 
	JOINT LowerBack
	{
		OFFSET 0.000000 0.000000 0.000000
		CHANNELS 3 Zrotation Yrotation Xrotation
		JOINT Spine
		{
			OFFSET 0.028270 2.035590 -0.193380
			CHANNELS 3 Zrotation Yrotation Xrotation
			JOINT Spine1
			{
				OFFSET 0.056720 2.048850 -0.042750
				CHANNELS 3 Zrotation Yrotation Xrotation
				JOINT Neck
				{
					OFFSET 0.000000 0.000000 0.000000
					CHANNELS 3 Zrotation Yrotation Xrotation
					JOINT Neck1
					{
						OFFSET -0.054170 1.746240 0.172020
						CHANNELS 3 Zrotation Yrotation Xrotation
						JOINT Head
						{
							OFFSET 0.104070 1.761360 -0.123970
							CHANNELS 3 Zrotation Yrotation Xrotation
							End Site
							{
								OFFSET 0.000000 0.000000 0.000000
							}
						}
					}
				}
				JOINT LeftShoulder
				{
					OFFSET 0.000000 0.000000 0.000000
					CHANNELS 3 Zrotation Yrotation Xrotation
					JOINT LeftArm
					{
						OFFSET 3.362410 1.200890 -0.311210
						CHANNELS 3 Zrotation Yrotation Xrotation
						JOINT LeftForeArm
						{
							OFFSET 4.983000 -0.000000 -0.000000
							CHANNELS 3 Zrotation Yrotation Xrotation
							JOINT LeftHand
							{
								OFFSET 3.483560 -0.000000 -0.000000
								CHANNELS 3 Zrotation Yrotation Xrotation
								JOINT LeftFingerBase
								{
									OFFSET 0.000000 0.000000 0.000000
									CHANNELS 3 Zrotation Yrotation Xrotation
									JOINT LeftHandIndex1
									{
										OFFSET 0.715260 -0.000000 -0.000000
										CHANNELS 3 Zrotation Yrotation Xrotation
										End Site
										{
											OFFSET 0.000000 0.000000 0.000000
										}
									}
								}
								JOINT LThumb
								{
									OFFSET 0.000000 0.000000 0.000000
									CHANNELS 3 Zrotation Yrotation Xrotation
									End Site
									{
										OFFSET 0.000000 0.000000 0.000000
									}
								}
							}
						}
					}
				}
				JOINT RightShoulder
				{
					OFFSET 0.000000 0.000000 0.000000
					CHANNELS 3 Zrotation Yrotation Xrotation
					JOINT RightArm
					{
						OFFSET -3.136600 1.374050 -0.404650
						CHANNELS 3 Zrotation Yrotation Xrotation
						JOINT RightForeArm
						{
							OFFSET -5.241900 -0.000000 -0.000000
							CHANNELS 3 Zrotation Yrotation Xrotation
							JOINT RightHand
							{
								OFFSET -3.444170 -0.000000 -0.000000
								CHANNELS 3 Zrotation Yrotation Xrotation
								JOINT RightFingerBase
								{
									OFFSET 0.000000 0.000000 0.000000
									CHANNELS 3 Zrotation Yrotation Xrotation
									JOINT RightHandIndex1
									{
										OFFSET -0.622530 -0.000000 -0.000000
										CHANNELS 3 Zrotation Yrotation Xrotation
										End Site
										{
											OFFSET 0.000000 0.000000 0.000000
										}
									}
								}
								JOINT RThumb
								{
									OFFSET 0.000000 0.000000 0.000000
									CHANNELS 3 Zrotation Yrotation Xrotation
									End Site
									{
										OFFSET 0.000000 0.000000 0.000000
									}
								}
							}
						}
					}
				}
			}
		}
	}
}
}
MOTION
Frames: 9
Frame Time: 0.008333
-19.537479 15.312188 -2.514086 154.782425 84.725504 -175.570286 10.405034 -5.036949 -0.629423 0.949567 -5.796874 -2.822119 -9.300883 -5.895023 1.146319 11.028433 -7.573617 -7.272150 -4.657104 -0.339929 -0.106687 0.000000 0.000000 0.000000 1.179100 -1.178785 4.579992 -14.550647 -27.190417 11.394664 -0.436745 -82.637959 0.079133 -12.171531 -2.944863 0.361092 0.124926 0.402831 0.000000 0.000000 0.000000 0.000000 0.000000 0.000000 0.000000 22.508645 -7.944618 2.238476 63.735651 -8.248116 -5.806072 3.085074 28.890050 0.018258 -0.218416 14.696180 -0.036505 0.069094 -0.115465 -0.000000 0.000000 0.000000 0.000000 0.000000 0.000000 0.000000 
-19.263882 15.318817 -2.487107 159.782958 84.963441 -170.250016 11.274141 -4.883573 -0.854315 1.115145 -5.705978 -2.890450 -9.333767 -5.810595 1.108732 10.926287 -7.240815 -7.294184 -4.708148 -0.343413 -0.114907 0.000000 0.000000 0.000000 1.071112 -0.972568 4.628699 -14.753770 -26.070309 11.570755 -0.439617 -82.947677 0.078603 -12.233205 -3.003851 0.368511 0.118632 0.397219 0.000000 0.000000 0.000000 0.000000 0.000000 0.000000 0.000000 22.552664 -7.516440 2.280016 63.214175 -7.655744 -6.091764 3.126209 28.405065 0.018617 -0.252167 14.704807 -0.041099 0.070693 -0.115746 -0.000000 0.000000 0.000000 0.000000 0.000000 0.000000 0.000000 
-18.991257 15.332630 -2.458544 164.340247 85.248345 -165.375250 12.022649 -4.716651 -1.039320 1.253613 -5.594678 -2.950037 -9.363724 -5.704847 1.067785 10.844654 -6.855038 -7.303769 -4.761793 -0.347004 -0.120988 0.000000 0.000000 0.000000 0.978816 -0.748264 4.680639 -15.037720 -24.921233 11.882435 -0.448185 -83.161008 0.077685 -12.287511 -3.062944 0.375635 0.111319 0.389692 0.000000 0.000000 0.000000 0.000000 0.000000 0.000000 0.000000 22.631503 -7.027293 2.320788 62.680497 -6.978706 -6.283093 3.167149 27.873328 0.018960 -0.260459 14.730327 -0.042394 0.071950 -0.116128 -0.000000 0.000000 0.000000 0.000000 0.000000 0.000000 0.000000 
-18.720297 15.353712 -2.428049 168.331702 85.554226 -161.077080 12.632030 -4.548201 -1.186687 1.362436 -5.473441 -3.000572 -9.389661 -5.588213 1.024343 10.787289 -6.416259 -7.294427 -4.818242 -0.350787 -0.122855 0.000000 0.000000 0.000000 0.913061 -0.524658 4.736107 -15.398607 -23.750102 12.331868 -0.463075 -83.262967 0.076372 -12.336210 -3.117931 0.381766 0.103132 0.380163 0.000000 0.000000 0.000000 0.000000 0.000000 0.000000 0.000000 22.752053 -6.485892 2.358996 62.138815 -6.221945 -6.384046 3.207671 27.292070 0.019284 -0.236356 14.773173 -0.039489 0.072803 -0.116579 -0.000000 0.000000 0.000000 0.000000 0.000000 0.000000 0.000000 
-18.452135 15.382047 -2.395311 171.663703 85.862307 -157.457504 13.097156 -4.386401 -1.300322 1.441142 -5.349806 -3.043200 -9.411386 -5.468353 0.976525 10.755768 -5.923355 -7.256731 -4.877877 -0.354892 -0.117493 0.000000 0.000000 0.000000 0.888770 -0.336046 4.794937 -15.848609 -22.535299 12.916244 -0.484373 -83.252243 0.074664 -12.384384 -3.163339 0.386803 0.094288 0.368505 0.000000 0.000000 0.000000 0.000000 0.000000 0.000000 0.000000 22.917783 -5.898400 2.394723 61.594272 -5.394271 -6.405299 3.247823 26.660791 0.019595 -0.172392 14.831749 -0.031285 0.073218 -0.117094 -0.000000 0.000000 0.000000 0.000000 0.000000 0.000000 0.000000 
-18.187489 15.417680 -2.360355 174.323869 86.165425 -154.535101 13.425340 -4.233874 -1.383194 1.491258 -5.226529 -3.078321 -9.429054 -5.348029 0.925394 10.749510 -5.380237 -7.186722 -4.940106 -0.359316 -0.103487 0.000000 0.000000 0.000000 0.905743 -0.191277 4.856298 -16.375365 -21.289629 13.629716 -0.512993 -83.117866 0.072574 -12.434049 -3.197188 0.390244 0.084976 0.354798 0.000000 0.000000 0.000000 0.000000 0.000000 0.000000 0.000000 23.127408 -5.273156 2.427520 61.050550 -4.496899 -6.355003 3.287978 25.979491 0.019903 -0.063350 14.904032 -0.017082 0.073214 -0.117692 -0.000000 0.000000 0.000000 0.000000 0.000000 0.000000 0.000000 
-17.926656 15.460595 -2.323338 176.347834 86.463814 -152.277360 13.629441 -4.089204 -1.436206 1.515198 -5.102661 -3.103559 -9.443470 -5.225841 0.880520 10.767811 -4.793804 -7.091303 -5.003308 -0.363851 -0.082736 0.000000 0.000000 0.000000 0.933131 -0.033681 4.919773 -16.908777 -20.125729 14.472929 -0.552002 -82.817954 0.070136 -12.474230 -3.224298 0.392594 0.075063 0.339524 0.000000 0.000000 0.000000 0.000000 0.000000 0.000000 0.000000 23.379063 -4.618728 2.452953 60.509250 -3.523511 -6.244632 3.328210 25.255697 0.020211 0.099054 14.982718 0.004419 0.072773 -0.118378 -0.000000 0.000000 0.000000 0.000000 0.000000 0.000000 0.000000 
-17.670138 15.510698 -2.284737 177.852163 86.762076 -150.571624 13.723092 -3.949179 -1.462359 1.515852 -4.975548 -3.123885 -9.452308 -5.100303 0.829014 10.801107 -4.168004 -6.954841 -5.066760 -0.368632 -0.050365 0.000000 0.000000 0.000000 1.008037 0.035761 4.982046 -17.538276 -18.890605 15.417502 -0.598748 -82.408718 0.067369 -12.529328 -3.236411 0.393543 0.065253 0.322345 0.000000 0.000000 0.000000 0.000000 0.000000 0.000000 0.000000 23.653251 -3.939302 2.479950 59.978444 -2.484251 -6.077145 3.369587 24.486295 0.020550 0.312535 15.067303 0.033020 0.072016 -0.119258 -0.000000 0.000000 0.000000 0.000000 0.000000 0.000000 0.000000 
-17.417951 15.567895 -2.244922 178.912492 87.064101 -149.341797 13.719560 -3.810341 -1.460908 1.496060 -4.842247 -3.135915 -9.456007 -4.967992 0.782890 10.846910 -3.505996 -6.790062 -5.128043 -0.373329 -0.010182 0.000000 0.000000 0.000000 1.084912 0.105529 5.043984 -18.171148 -17.737902 16.464139 -0.656939 -81.841388 0.064331 -12.582664 -3.243392 0.393696 0.055217 0.303995 0.000000 0.000000 0.000000 0.000000 0.000000 0.000000 0.000000 23.942680 -3.235893 2.503015 59.461646 -1.379398 -5.871909 3.411541 23.692125 0.020908 0.589810 15.146685 0.070519 0.070855 -0.120330 -0.000000 0.000000 0.000000 0.000000 0.000000 0.000000 0.000000 
